<?xml version="1.0" standalone="no"?>
<!DOCTYPE svg PUBLIC "-//W3C//DTD SVG 20010904//EN"
 "http://www.w3.org/TR/2001/REC-SVG-20010904/DTD/svg10.dtd">
<svg version="1.0" xmlns="http://www.w3.org/2000/svg"
 width="400.000000pt" height="403.000000pt" viewBox="0 0 400.000000 403.000000"
 preserveAspectRatio="xMidYMid meet">

<g transform="translate(0.000000,403.000000) scale(0.100000,-0.100000)"
fill="#000000" stroke="none">
<path d="M1955 2733 c-19 -27 -41 -68 -50 -92 -16 -48 -20 -111 -7 -111 5 0
27 -16 50 -35 l41 -36 45 35 c25 19 55 37 66 41 18 6 20 12 14 43 -12 69 -87
202 -114 202 -5 0 -25 -21 -45 -47z"/>
<path d="M1796 2624 c-13 -34 -6 -52 24 -63 29 -10 30 -9 30 23 0 25 -6 35
-24 44 -20 9 -25 8 -30 -4z"/>
<path d="M2173 2627 c-29 -13 -33 -67 -5 -67 34 0 46 16 36 48 -8 26 -12 28
-31 19z"/>
<path d="M1730 2521 c0 -21 34 -97 62 -139 51 -75 138 -116 138 -65 0 10 9 37
20 60 l19 42 -29 31 c-16 17 -48 39 -72 49 -53 23 -138 36 -138 22z"/>
<path d="M2138 2508 c-43 -11 -112 -68 -134 -110 -15 -30 -44 -115 -44 -132 0
-13 107 2 143 20 68 35 118 99 153 196 l13 38 -47 -1 c-26 -1 -63 -5 -84 -11z"/>
<path d="M2241 2362 c-17 -27 -48 -61 -68 -75 l-38 -27 36 0 c49 0 140 25 201
56 l52 27 -64 33 c-36 18 -70 33 -76 34 -7 0 -26 -22 -43 -48z"/>
<path d="M1690 2393 c-8 -3 -30 -14 -48 -25 -25 -15 -30 -23 -22 -33 18 -22
136 -64 197 -71 l58 -7 -43 32 c-23 17 -55 49 -70 71 -26 38 -40 44 -72 33z"/>
<path d="M810 2012 c0 -4 5 -13 10 -18 6 -6 36 -77 68 -160 55 -143 59 -149
86 -149 27 0 30 6 83 145 30 80 61 152 69 161 20 22 18 29 -12 29 -21 0 -25
-4 -19 -17 6 -17 -93 -303 -105 -303 -11 0 -104 266 -102 292 2 26 0 28 -38
28 -22 0 -40 -4 -40 -8z"/>
<path d="M1245 1990 c21 -40 21 -243 1 -282 l-15 -28 50 0 c49 0 58 7 38 27
-12 12 -8 268 5 296 7 15 2 17 -43 17 l-52 0 16 -30z"/>
<path d="M1514 2009 c-44 -13 -66 -41 -62 -81 2 -27 11 -38 53 -65 129 -82
155 -112 125 -148 -28 -34 -124 -23 -159 18 -19 24 -31 21 -31 -7 0 -30 40
-46 119 -46 94 0 146 49 121 114 -9 25 -39 49 -133 107 -58 35 -67 54 -39 81
26 27 77 26 106 -1 12 -12 28 -21 34 -21 19 0 14 38 -5 44 -42 11 -100 14
-129 5z"/>
<path d="M1790 2016 c0 -2 7 -17 15 -32 21 -41 21 -234 0 -274 l-16 -30 50 0
49 0 -14 38 c-7 20 -13 54 -14 75 l0 37 80 0 80 0 0 -59 c0 -33 -4 -63 -10
-66 -23 -14 -7 -25 39 -25 l50 0 -15 28 c-20 39 -20 242 1 282 l16 30 -52 0
c-45 0 -50 -2 -43 -17 4 -10 10 -49 12 -86 l4 -68 -79 3 -78 3 -3 42 c-2 22 4
58 12 78 9 21 16 39 16 41 0 2 -22 4 -50 4 -27 0 -50 -2 -50 -4z"/>
<path d="M2215 1990 c21 -40 21 -243 1 -282 l-15 -28 120 0 119 0 0 25 c0 29
-10 31 -48 11 -15 -7 -46 -17 -69 -21 l-43 -7 0 71 0 71 35 0 c19 0 35 5 35
10 0 6 -16 10 -35 10 l-35 0 0 75 0 75 33 0 c17 0 52 -9 76 -20 24 -11 45 -20
47 -20 2 0 4 14 4 30 l0 30 -120 0 -121 0 16 -30z"/>
<path d="M2624 2009 c-44 -13 -66 -41 -62 -81 2 -27 11 -38 53 -65 113 -72
130 -87 130 -118 0 -60 -92 -71 -154 -20 -36 31 -41 31 -41 1 0 -30 40 -46
119 -46 94 0 146 49 121 114 -9 25 -39 49 -133 107 -58 35 -67 54 -39 81 26
27 77 26 106 -1 12 -12 28 -21 34 -21 19 0 14 38 -5 44 -42 11 -100 14 -129 5z"/>
<path d="M2900 2016 c0 -2 7 -17 15 -32 21 -41 21 -234 0 -274 l-16 -30 50 0
49 0 -14 38 c-7 20 -13 54 -14 75 l0 37 80 0 80 0 0 -59 c0 -33 -4 -63 -10
-66 -23 -14 -7 -25 39 -25 l50 0 -15 28 c-20 39 -20 242 1 282 l16 30 -52 0
c-45 0 -50 -2 -43 -17 4 -10 10 -49 12 -86 l4 -68 -79 3 -78 3 -3 32 c-3 30 6
73 23 116 6 15 1 17 -44 17 -28 0 -51 -2 -51 -4z"/>
<path d="M1605 1530 c-137 -68 -114 -260 36 -300 45 -13 89 -9 54 4 -81 31
-117 81 -123 172 -5 73 7 101 52 119 58 24 121 -8 158 -78 41 -81 24 -177 -37
-203 -16 -7 -23 -13 -15 -14 28 0 92 51 106 86 36 85 5 171 -76 212 -55 27
-103 28 -155 2z"/>
<path d="M863 1531 c-12 -6 -29 -22 -39 -36 -25 -38 -8 -64 71 -110 67 -40
105 -76 105 -101 0 -7 -11 -21 -25 -30 -31 -20 -87 -13 -127 16 -34 25 -38 25
-38 0 0 -26 36 -40 103 -40 61 0 96 16 116 51 22 40 -2 76 -89 134 -41 28 -76
59 -78 69 -9 44 66 61 111 26 38 -30 59 -25 38 8 -10 17 -118 26 -148 13z"/>
<path d="M1146 1513 c19 -38 19 -218 0 -255 l-15 -28 46 0 c39 0 44 2 37 18
-4 9 -10 41 -12 70 l-4 52 76 0 76 0 0 -42 c0 -24 -7 -55 -14 -70 l-15 -28 46
0 c40 0 44 2 37 18 -12 22 -12 252 0 275 7 15 3 17 -37 17 l-46 0 15 -27 c7
-16 14 -49 14 -75 l0 -48 -75 0 -75 0 0 53 c0 31 6 61 16 75 15 22 15 22 -35
22 l-50 0 15 -27z"/>
<path d="M1959 1526 c17 -20 17 -261 1 -281 -11 -13 -6 -15 34 -15 43 0 46 2
36 19 -16 30 -13 126 5 141 21 17 27 12 85 -60 32 -40 50 -71 47 -82 -4 -15 2
-18 40 -18 l46 0 -44 48 c-25 26 -57 64 -73 85 -16 20 -37 37 -47 37 -11 0
-19 4 -19 9 0 8 107 97 144 118 20 12 20 12 -6 13 -16 0 -28 -4 -28 -9 0 -10
-143 -131 -154 -131 -11 0 -6 116 6 128 9 9 1 12 -36 12 -41 0 -47 -2 -37 -14z"/>
<path d="M2346 1523 c12 -23 12 -253 0 -275 -7 -17 1 -18 103 -18 l111 0 0 26
c0 21 -3 25 -17 19 -55 -23 -99 -36 -117 -33 -20 3 -21 9 -21 143 l0 140 28 3
c15 2 47 -6 71 -17 54 -26 56 -26 56 4 l0 25 -111 0 c-102 0 -110 -1 -103 -17z"/>
<path d="M2606 1523 c4 -10 8 -43 9 -73 l0 -55 -55 -2 c-86 -4 -120 -12 -120
-28 0 -18 5 -18 55 0 22 8 60 14 83 15 l44 0 -4 -57 c-2 -32 -8 -66 -12 -75
-7 -17 1 -18 103 -18 l111 0 0 25 c0 29 -6 30 -50 9 -18 -10 -49 -17 -69 -18
l-36 -1 -3 62 -3 62 43 3 43 4 -42 8 -43 9 0 70 0 70 47 -7 c26 -3 57 -13 69
-21 33 -21 44 -19 44 10 l0 25 -111 0 c-102 0 -110 -1 -103 -17z"/>
<path d="M2924 1518 c12 -17 16 -50 16 -140 0 -67 -4 -119 -10 -123 -16 -10
-12 -25 8 -25 15 0 17 12 14 142 -3 116 -1 141 9 130 8 -7 50 -70 94 -140 68
-106 86 -128 108 -130 l27 -3 0 143 c0 99 4 148 12 156 9 9 7 12 -12 12 l-25
0 3 -102 c2 -57 2 -121 0 -143 l-3 -40 -90 142 c-90 142 -90 143 -128 143 -37
0 -38 0 -23 -22z"/>
</g>
</svg>
