<?xml version="1.0" standalone="no"?>
<!DOCTYPE svg PUBLIC "-//W3C//DTD SVG 20010904//EN"
 "http://www.w3.org/TR/2001/REC-SVG-20010904/DTD/svg10.dtd">
<svg version="1.0" xmlns="http://www.w3.org/2000/svg"
 width="828.000000pt" height="836.000000pt" viewBox="0 0 828.000000 836.000000"
 preserveAspectRatio="xMidYMid meet">

<g transform="translate(0.000000,836.000000) scale(0.100000,-0.100000)"
fill="#ffffff" stroke="none">
<path d="M4148 8253 c-47 -4 -63 -18 -33 -29 8 -4 15 -12 15 -19 0 -7 12 -26
28 -41 29 -32 17 -30 228 -24 51 1 96 0 102 -4 6 -3 88 -8 182 -11 l171 -5
-15 22 c-9 12 -16 32 -16 45 0 12 -5 25 -10 28 -20 13 -67 -6 -78 -30 -8 -16
-20 -25 -35 -25 -34 0 -40 10 -15 31 l21 19 -21 0 c-31 0 -52 -11 -52 -26 0
-8 -6 -14 -14 -14 -11 0 -13 9 -9 35 5 33 4 35 -23 36 -174 8 -199 7 -206 -4
-5 -8 -11 -8 -15 -2 -5 6 -30 10 -58 10 -27 0 -61 3 -75 6 -14 3 -46 4 -72 2z
m180 -55 c-6 -18 -28 -21 -28 -4 0 9 7 16 16 16 9 0 14 -5 12 -12z m87 2 c-3
-5 -14 -10 -23 -10 -15 0 -15 2 -2 10 20 13 33 13 25 0z"/>
<path d="M3833 8241 c-24 -4 -45 -10 -49 -13 -11 -12 6 -27 22 -21 13 5 15 1
9 -18 -10 -33 -9 -32 -65 -34 -27 -1 -53 -5 -57 -8 -10 -11 -103 -8 -103 3 0
6 -11 10 -25 10 -16 0 -25 -6 -25 -15 0 -8 -4 -15 -9 -15 -5 0 -11 7 -15 15
-14 37 -73 4 -61 -35 4 -13 2 -20 -6 -20 -23 0 -1 -12 40 -21 33 -7 48 -6 74
8 18 9 48 15 68 14 22 -1 41 4 49 14 7 8 20 15 29 15 28 0 91 -21 91 -29 0 -5
-28 -12 -62 -15 -127 -13 -235 -29 -322 -47 -110 -23 -109 -23 -96 1 8 14 8
26 0 40 -6 12 -8 30 -5 40 5 17 2 20 -21 20 -21 0 -24 -3 -15 -13 8 -11 5 -19
-14 -37 -25 -24 -37 -22 -41 5 -1 9 6 15 17 15 12 0 16 5 13 15 -6 15 -60 11
-78 -6 -6 -5 -25 -9 -43 -9 -18 0 -33 -5 -33 -10 0 -18 30 -23 66 -12 20 6 36
6 40 1 3 -5 -8 -12 -25 -15 -21 -5 -31 -12 -31 -25 0 -24 -8 -27 -64 -30 -30
-2 -58 -10 -74 -23 -19 -15 -38 -20 -75 -18 -27 1 -56 -3 -63 -9 -7 -6 -18 -8
-23 -5 -5 4 -16 -2 -23 -12 -15 -20 -58 -52 -71 -52 -5 0 -6 12 -3 26 6 24 5
26 -16 20 -13 -3 -26 -6 -30 -6 -4 0 -5 -6 -2 -14 3 -8 12 -12 20 -9 8 3 14 0
14 -6 0 -13 -51 -40 -67 -34 -6 2 -14 -1 -18 -6 -3 -6 -17 -11 -30 -11 -13 0
-27 -4 -30 -10 -3 -5 -15 -10 -26 -10 -10 0 -19 -4 -19 -9 0 -5 -10 -7 -22 -3
-23 5 -23 5 -4 -17 11 -12 26 -19 33 -17 7 3 14 2 17 -2 5 -9 -27 -27 -119
-67 -33 -14 -78 -35 -100 -46 -22 -10 -41 -15 -43 -10 -2 6 -25 7 -53 4 -33
-4 -49 -2 -49 6 0 6 7 11 15 11 18 0 19 12 3 28 -17 17 -31 15 -24 -3 3 -8 -2
-19 -12 -24 -15 -9 -15 -11 1 -29 17 -19 17 -20 -15 -33 -18 -7 -37 -19 -41
-26 -5 -7 -28 -23 -53 -34 -24 -12 -44 -25 -44 -31 0 -5 -12 -15 -27 -21 -60
-27 -103 -60 -103 -78 0 -18 -69 -70 -100 -75 -8 -2 -16 -7 -18 -13 -3 -10
-127 -111 -136 -111 -3 0 -24 -18 -48 -39 -24 -22 -54 -48 -68 -60 l-25 -20
27 -1 c18 0 33 9 48 30 12 17 26 30 32 30 6 0 37 20 70 45 33 25 69 45 79 45
10 0 19 6 19 13 0 7 10 17 23 22 12 6 26 20 32 33 5 12 17 22 26 22 9 0 22 7
29 15 7 8 18 15 25 15 6 0 20 9 30 20 10 11 22 20 27 20 5 0 25 12 44 26 19
15 34 23 34 19 0 -5 10 3 22 17 24 26 55 42 75 39 6 -1 34 16 62 37 28 21 90
57 138 81 49 24 95 48 103 52 8 5 22 12 30 15 43 15 86 44 95 62 5 11 18 23
28 26 15 4 16 2 6 -10 -21 -26 28 -16 104 20 40 18 124 50 187 71 63 21 122
40 130 43 8 3 22 7 30 8 8 1 27 6 41 12 15 6 30 8 33 5 3 -3 11 -1 18 4 7 6
31 14 53 18 110 20 135 25 200 40 39 9 79 16 90 16 11 1 43 7 70 14 28 8 75
16 105 19 30 3 70 8 87 12 29 6 34 3 43 -20 5 -14 12 -26 15 -26 4 0 3 5 0 10
-16 26 17 39 96 39 84 0 99 4 99 26 0 12 -10 13 -47 8 -27 -3 -56 -10 -65 -15
-10 -4 -36 -5 -59 -2 -39 6 -41 8 -23 21 12 9 34 12 60 9 47 -6 58 2 69 52 4
18 13 32 21 32 29 0 94 25 91 35 -3 8 -40 10 -112 6 -5 -1 -26 1 -45 3 -19 2
-54 1 -77 -3z m94 -37 c8 -20 -8 -36 -26 -25 -15 10 -8 41 9 41 6 0 13 -7 17
-16z m-651 -199 c-22 -17 -36 -19 -36 -7 0 14 12 22 34 22 21 -1 21 -1 2 -15z
m-116 -25 c0 -5 -7 -10 -16 -10 -8 0 -12 5 -9 10 3 6 10 10 16 10 5 0 9 -4 9
-10z m-141 -39 c11 -7 3 -12 -28 -21 -56 -15 -75 -6 -31 13 42 19 41 19 59 8z
m-124 -41 c3 -5 -1 -10 -10 -10 -9 0 -13 5 -10 10 3 6 8 10 10 10 2 0 7 -4 10
-10z m-117 -49 c-36 -16 -79 -31 -95 -35 l-28 -6 24 20 c13 11 36 20 52 20 15
0 34 7 41 15 7 8 27 14 43 14 25 0 18 -5 -37 -28z"/>
<path d="M3580 8200 c-8 -5 -24 -7 -35 -4 -11 3 -31 1 -45 -4 l-24 -9 27 -7
c15 -3 53 0 86 9 33 8 66 12 75 9 9 -3 16 -1 16 5 0 13 -79 15 -100 1z"/>
<path d="M4856 8195 c-12 -9 -13 -14 -4 -23 7 -7 17 -12 24 -12 7 0 17 -14 23
-31 8 -23 15 -30 27 -25 8 3 22 6 30 6 8 0 14 7 14 16 0 8 5 12 10 9 6 -3 10
-14 10 -24 0 -19 52 -37 71 -25 32 19 -49 94 -102 94 -10 0 -20 4 -23 9 -9 14
-63 18 -80 6z"/>
<path d="M4020 8190 c0 -6 -12 -15 -27 -21 l-28 -11 30 -14 c35 -16 84 -18
105 -4 20 13 0 45 -28 45 -11 0 -24 3 -28 8 -11 10 -24 9 -24 -3z"/>
<path d="M3330 8131 c0 -10 30 -24 37 -17 3 3 2 9 -2 15 -8 13 -35 15 -35 2z"/>
<path d="M4047 8103 c-15 -15 -5 -23 30 -23 35 0 36 1 17 15 -21 16 -37 19
-47 8z"/>
<path d="M3004 8086 c4 -10 1 -25 -5 -32 -7 -9 -8 -14 -1 -14 16 0 23 30 11
48 -9 15 -10 15 -5 -2z"/>
<path d="M4155 8090 c-8 -13 37 -31 50 -19 12 12 52 11 60 -1 8 -13 45 -13 45
0 0 14 -12 17 -87 25 -39 4 -64 2 -68 -5z"/>
<path d="M4330 8080 c0 -5 5 -10 11 -10 5 0 7 5 4 10 -3 6 -8 10 -11 10 -2 0
-4 -4 -4 -10z"/>
<path d="M5270 8070 c-6 -11 -15 -18 -20 -15 -5 3 -12 0 -15 -6 -4 -6 6 -24
21 -41 24 -25 35 -29 64 -25 25 3 43 -1 59 -14 12 -10 37 -18 55 -17 22 1 41
-7 60 -25 16 -15 40 -27 53 -27 13 0 37 -7 54 -16 16 -8 38 -12 48 -9 11 3 25
-3 36 -15 11 -12 31 -20 49 -20 l31 0 -30 25 c-16 14 -38 23 -47 21 -25 -6
-47 22 -27 35 9 6 -1 9 -32 9 -31 0 -62 9 -93 26 -25 14 -50 23 -55 20 -14 -9
-81 34 -83 52 0 10 -2 24 -2 32 -1 8 -11 15 -23 15 -12 0 -25 3 -29 8 -16 15
-63 7 -74 -13z"/>
<path d="M4630 8060 c0 -12 48 -25 58 -16 8 9 -18 26 -40 26 -10 0 -18 -4 -18
-10z"/>
<path d="M4740 8041 c0 -14 11 -18 64 -26 21 -3 42 -7 46 -10 4 -2 15 2 25 9
17 12 15 14 -26 20 -24 4 -59 10 -76 13 -21 3 -33 1 -33 -6z"/>
<path d="M4910 8011 c0 -5 7 -12 16 -15 8 -3 12 -10 9 -16 -3 -5 -1 -10 4 -10
6 0 11 5 11 10 0 12 32 13 62 1 13 -5 50 -15 83 -22 33 -7 65 -16 70 -20 6 -4
38 -11 72 -15 35 -3 68 -13 74 -20 6 -8 22 -14 34 -14 13 0 25 -4 27 -8 4 -11
120 -42 131 -35 26 16 -251 102 -492 153 -109 23 -101 22 -101 11z"/>
<path d="M5615 7970 c-3 -5 -1 -10 4 -10 6 0 11 5 11 10 0 6 -2 10 -4 10 -3 0
-8 -4 -11 -10z"/>
<path d="M5650 7950 c0 -5 5 -10 10 -10 6 0 10 5 10 10 0 6 -4 10 -10 10 -5 0
-10 -4 -10 -10z"/>
<path d="M2650 7900 c0 -5 5 -10 10 -10 6 0 10 5 10 10 0 6 -4 10 -10 10 -5 0
-10 -4 -10 -10z"/>
<path d="M2545 7891 c-10 -18 17 -23 33 -7 15 15 15 16 -5 16 -12 0 -24 -4
-28 -9z"/>
<path d="M3035 7890 c-3 -5 -1 -10 4 -10 6 0 11 5 11 10 0 6 -2 10 -4 10 -3 0
-8 -4 -11 -10z"/>
<path d="M5530 7842 c0 -14 28 -35 38 -28 5 3 28 -3 50 -14 47 -23 55 -24 50
-9 -2 6 -26 19 -53 28 -28 10 -58 21 -67 26 -10 4 -18 3 -18 -3z"/>
<path d="M5780 7830 c0 -19 48 -42 66 -32 15 9 14 12 -14 26 -35 18 -52 20
-52 6z"/>
<path d="M5994 7809 c18 -26 55 -53 63 -45 7 6 -55 66 -69 66 -5 0 -3 -9 6
-21z"/>
<path d="M2490 7780 c0 -5 5 -10 10 -10 6 0 10 5 10 10 0 6 -4 10 -10 10 -5 0
-10 -4 -10 -10z"/>
<path d="M5680 7780 c0 -5 7 -10 16 -10 8 0 12 5 9 10 -3 6 -10 10 -16 10 -5
0 -9 -4 -9 -10z"/>
<path d="M5960 7786 c0 -2 7 -6 15 -10 8 -3 15 -1 15 4 0 6 -7 10 -15 10 -8 0
-15 -2 -15 -4z"/>
<path d="M2299 7757 c-9 -7 -14 -18 -12 -24 3 -7 0 -13 -6 -13 -6 0 -11 -7
-11 -15 0 -9 9 -15 25 -15 14 0 25 -5 25 -12 0 -8 6 -6 17 5 16 15 16 18 -1
36 -10 11 -16 27 -13 36 8 18 -2 19 -24 2z"/>
<path d="M5720 7762 c0 -7 24 -19 100 -48 42 -16 40 -16 40 -5 0 8 -112 61
-131 61 -5 0 -9 -4 -9 -8z"/>
<path d="M6100 7751 c0 -13 8 -30 18 -37 39 -30 44 -6 7 34 l-25 27 0 -24z"/>
<path d="M6015 7706 c21 -27 35 -36 58 -36 21 0 39 -10 61 -34 18 -18 48 -39
68 -45 21 -7 40 -20 43 -29 3 -9 23 -26 45 -36 21 -10 49 -29 61 -42 13 -13
28 -24 34 -24 6 0 29 -18 50 -40 21 -22 43 -40 47 -40 17 0 217 -166 248 -206
14 -17 14 -18 -2 -6 -9 8 -19 9 -22 4 -8 -13 15 -31 43 -35 12 -2 31 -18 41
-35 11 -18 25 -32 31 -32 8 0 8 5 -1 15 -11 13 -10 14 3 9 9 -3 19 -14 22 -24
3 -9 31 -44 63 -77 81 -86 164 -171 185 -190 9 -9 17 -25 17 -36 0 -10 9 -21
20 -24 10 -3 26 -16 35 -29 8 -13 21 -24 29 -24 7 0 18 -11 24 -25 6 -14 17
-24 24 -23 6 2 15 -12 18 -32 9 -48 36 -97 57 -104 10 -3 26 -23 36 -43 22
-47 36 -69 65 -110 12 -17 22 -33 22 -36 0 -3 17 -34 39 -68 21 -35 41 -74 45
-86 4 -13 14 -23 22 -23 8 0 13 -9 12 -22 -1 -13 13 -44 30 -69 18 -26 32 -55
32 -64 0 -9 11 -30 25 -47 14 -16 25 -38 25 -47 0 -10 11 -39 24 -64 14 -25
28 -62 32 -82 3 -19 14 -40 23 -44 19 -11 71 -3 71 10 0 5 9 9 20 9 17 0 19 3
11 17 -5 10 -17 18 -27 18 -9 0 -19 6 -21 13 -3 6 3 12 12 12 33 0 11 34 -28
43 -21 5 -37 15 -37 23 0 12 5 12 32 -2 l31 -16 -22 28 c-15 19 -20 36 -16 51
5 23 -8 32 -20 12 -9 -13 -55 48 -55 73 0 10 -4 18 -10 18 -5 0 -10 5 -10 10
0 6 7 10 15 10 19 0 19 20 -1 48 -8 12 -12 22 -9 22 4 0 -3 14 -15 31 -12 16
-25 27 -28 24 -4 -3 -1 -9 5 -13 12 -8 29 -92 18 -92 -18 0 -45 23 -45 38 0
10 -5 23 -12 30 -6 6 -12 28 -14 49 -2 21 -3 40 -3 42 -1 2 -7 -2 -15 -8 -12
-10 -16 -3 -21 44 -5 35 -3 60 4 68 8 10 4 21 -15 45 -22 26 -29 29 -45 19
-24 -15 -39 1 -16 17 21 16 22 36 2 62 -15 18 -15 18 -9 -7 4 -19 1 -28 -11
-33 -24 -9 -33 0 -27 29 3 20 1 24 -12 19 -21 -8 -76 47 -77 78 -1 13 -2 41
-3 64 -3 48 -45 122 -87 150 -15 10 -26 21 -23 25 2 4 0 10 -6 14 -5 3 -10 0
-10 -8 0 -12 -9 -10 -42 6 -24 12 -44 25 -46 29 -2 4 -9 8 -15 8 -14 1 -38 33
-57 77 -8 17 -22 34 -32 36 -18 5 -22 12 -32 58 -3 15 -21 42 -39 60 -19 19
-37 48 -41 64 -8 36 -214 240 -263 261 -18 8 -36 21 -41 30 -7 12 -17 15 -36
10 -27 -7 -27 -26 0 -26 16 0 19 -16 4 -25 -15 -9 -60 25 -53 41 3 8 -1 14
-11 14 -9 0 -16 5 -16 11 0 7 10 9 28 5 15 -4 22 -3 16 1 -6 4 -13 16 -17 26
-3 9 -14 17 -24 17 -9 0 -27 10 -40 22 l-23 21 0 -22 c0 -12 6 -21 13 -20 22
2 58 -13 54 -25 -6 -19 -37 -19 -37 -1 0 11 -5 15 -15 11 -21 -8 -94 45 -95
68 0 10 -8 25 -17 32 -27 20 -38 16 -18 -6 10 -11 14 -20 8 -20 -15 0 -43 34
-43 52 0 9 -7 18 -15 22 -8 3 -12 12 -9 19 9 23 -35 29 -49 6 -15 -24 -25 -24
-57 1 -14 11 -31 20 -39 20 -8 0 -24 9 -35 20 -12 10 -38 26 -60 35 l-38 16
27 -35z m695 -426 c0 -5 -7 -7 -15 -4 -8 4 -15 8 -15 10 0 2 7 4 15 4 8 0 15
-4 15 -10z m537 -556 c8 -21 -13 -42 -28 -27 -13 13 -5 43 11 43 6 0 13 -7 17
-16z m43 -78 c0 -3 -4 -8 -10 -11 -5 -3 -10 -1 -10 4 0 6 5 11 10 11 6 0 10
-2 10 -4z"/>
<path d="M6180 7690 c0 -19 20 -27 33 -13 8 7 -11 33 -24 33 -5 0 -9 -9 -9
-20z"/>
<path d="M5946 7656 c3 -9 15 -16 26 -16 11 0 28 -5 39 -10 10 -6 19 -7 19 -2
0 4 -17 14 -37 22 -21 8 -41 16 -46 18 -4 2 -4 -3 -1 -12z"/>
<path d="M6050 7611 c0 -5 7 -12 16 -15 14 -5 15 -4 4 9 -14 17 -20 19 -20 6z"/>
<path d="M6100 7580 c8 -5 20 -10 25 -10 6 0 3 5 -5 10 -8 5 -19 10 -25 10 -5
0 -3 -5 5 -10z"/>
<path d="M6150 7560 c0 -5 5 -10 11 -10 5 0 7 5 4 10 -3 6 -8 10 -11 10 -2 0
-4 -4 -4 -10z"/>
<path d="M6180 7542 c0 -12 19 -26 26 -19 2 2 -2 10 -11 17 -9 8 -15 8 -15 2z"/>
<path d="M6220 7512 c0 -8 14 -16 63 -40 4 -2 7 1 7 7 0 6 -6 11 -14 11 -7 0
-19 7 -26 15 -14 16 -30 20 -30 7z"/>
<path d="M6382 7405 c39 -26 48 -30 48 -17 0 9 -57 42 -73 42 -6 0 5 -11 25
-25z"/>
<path d="M6520 7310 c38 -32 52 -37 44 -17 -5 13 -55 47 -70 47 -5 0 7 -13 26
-30z"/>
<path d="M6595 7260 c3 -5 8 -10 11 -10 2 0 4 5 4 10 0 6 -5 10 -11 10 -5 0
-7 -4 -4 -10z"/>
<path d="M1480 7083 c-46 -32 -385 -378 -400 -408 -8 -17 -24 -41 -36 -55 -13
-14 -45 -56 -73 -95 -27 -38 -54 -74 -58 -80 -5 -5 -26 -37 -47 -70 -21 -33
-47 -72 -57 -87 -22 -31 -27 -70 -7 -50 18 18 33 15 18 -3 -7 -9 -19 -14 -26
-11 -7 3 -24 -8 -38 -24 -13 -16 -26 -26 -29 -22 -2 4 -2 1 -1 -6 3 -11 -35
-89 -56 -117 -5 -5 -40 -73 -80 -149 -53 -104 -68 -141 -59 -147 14 -8 38 16
39 39 0 6 5 12 11 12 5 0 7 5 4 10 -3 6 -1 10 5 10 7 0 10 7 6 15 -3 9 0 15 9
15 17 0 45 50 45 79 0 11 5 23 10 26 6 3 10 -1 10 -10 0 -12 8 -8 31 14 29 30
32 51 5 51 -8 0 -16 -9 -19 -20 -3 -11 -10 -20 -15 -20 -7 0 -5 11 4 28 7 15
14 32 14 38 0 7 9 14 20 17 17 4 20 2 15 -13 -3 -10 -1 -21 5 -25 6 -4 13 6
16 24 4 16 15 38 25 47 20 18 26 44 10 44 -5 0 -16 -10 -25 -22 -16 -23 -16
-23 -9 7 6 30 33 66 33 46 0 -6 7 -11 15 -11 8 0 15 5 15 12 0 6 11 25 24 42
13 17 26 41 30 53 4 11 13 27 21 33 8 7 15 21 15 31 0 10 11 30 25 45 14 15
25 31 25 36 0 12 60 99 78 113 8 6 22 29 33 50 18 38 19 38 15 10 -2 -16 -7
-39 -11 -50 -5 -13 1 -10 18 10 14 16 23 34 19 39 -3 5 3 6 12 3 14 -5 17 -3
12 8 -3 8 -2 15 2 15 4 0 16 18 26 40 11 22 22 40 25 40 3 0 12 13 18 28 15
33 135 162 151 162 7 0 12 7 12 15 0 18 21 20 38 3 7 -7 12 -8 12 -2 0 6 -5
15 -11 21 -16 16 -3 43 21 43 11 0 20 7 20 15 0 8 7 15 15 15 8 0 15 7 15 15
0 8 12 22 28 32 15 9 29 18 30 19 6 4 -9 44 -16 44 -4 0 -19 -8 -32 -17z"/>
<path d="M7390 6550 c0 -5 5 -10 10 -10 6 0 10 5 10 10 0 6 -4 10 -10 10 -5 0
-10 -4 -10 -10z"/>
<path d="M1065 6479 c-4 -19 -3 -35 5 -42 9 -9 10 -6 5 14 -4 16 -2 30 4 33
13 9 14 26 2 26 -5 0 -12 -14 -16 -31z"/>
<path d="M7617 6204 c-9 -9 4 -35 14 -28 5 3 9 12 9 20 0 14 -12 19 -23 8z"/>
<path d="M647 5894 c-4 -4 -7 -14 -7 -23 0 -11 3 -12 11 -4 6 6 10 16 7 23 -2
6 -7 8 -11 4z"/>
<path d="M602 5777 c-12 -23 -22 -51 -22 -61 0 -18 1 -18 20 -1 11 10 20 27
20 37 0 11 5 28 10 38 6 10 6 21 2 24 -4 2 -18 -14 -30 -37z"/>
<path d="M485 5693 c-33 -71 -63 -146 -77 -193 -5 -19 -27 -78 -48 -130 -45
-112 -58 -169 -41 -180 9 -5 7 -16 -8 -41 -12 -19 -21 -43 -21 -54 0 -11 -9
-31 -20 -45 -11 -14 -20 -41 -20 -61 0 -20 -3 -39 -7 -43 -5 -4 -9 -17 -10
-29 -1 -12 -11 -65 -22 -117 -12 -52 -26 -133 -31 -180 -5 -47 -12 -94 -15
-106 -15 -63 -35 -316 -34 -419 2 -192 15 -318 65 -655 27 -180 40 -236 61
-261 12 -14 12 -17 -1 -22 -12 -5 -12 -11 0 -49 8 -24 39 -117 69 -208 86
-266 137 -394 226 -565 34 -66 70 -132 80 -146 10 -14 21 -38 25 -54 4 -16 22
-49 41 -73 19 -25 41 -59 50 -76 46 -91 314 -459 370 -509 19 -17 20 -17 19 0
-1 22 -29 64 -73 111 -18 18 -33 38 -33 43 0 4 -9 16 -19 26 -10 10 -29 37
-40 59 -12 23 -31 44 -43 47 -16 5 -19 12 -16 31 3 14 2 26 -1 26 -3 0 -14 14
-24 31 -15 27 -15 31 -1 25 11 -4 14 -1 12 12 -3 12 -12 16 -31 15 -16 -1 -27
3 -27 11 0 7 -11 25 -25 40 -14 15 -25 32 -25 39 0 7 -14 25 -30 40 -17 18
-26 35 -23 44 4 9 -1 19 -10 25 -10 5 -17 17 -17 27 0 11 -11 29 -25 42 -13
13 -25 29 -25 35 0 7 -11 22 -25 35 -16 17 -22 31 -19 46 4 15 0 25 -15 33
-12 6 -19 15 -16 20 8 13 -54 162 -73 176 -13 10 -14 16 -5 37 10 20 9 28 -3
37 -8 7 -14 18 -14 25 0 7 -7 15 -15 19 -9 3 -12 12 -9 21 5 11 0 18 -15 22
-14 4 -20 11 -17 22 7 23 -10 90 -26 104 -17 14 -42 86 -34 94 3 4 0 13 -8 22
-7 9 -16 47 -20 86 -4 38 -12 76 -19 83 -6 8 -13 40 -14 70 -1 30 -6 58 -11
61 -5 3 -11 45 -14 93 -2 47 -9 92 -15 100 -14 16 -33 117 -26 136 3 8 0 18
-8 22 -7 5 -14 29 -15 57 -1 26 -5 60 -9 74 -5 19 -2 28 10 33 15 5 16 18 10
108 -4 57 -13 122 -21 145 -9 30 -11 50 -4 67 5 14 9 38 8 53 -1 15 2 74 7
131 7 100 7 102 -14 102 -25 0 -27 21 -5 55 12 18 13 27 3 42 -9 15 -8 26 5
52 18 34 14 63 -13 95 -15 18 -15 19 1 13 18 -6 30 21 43 98 4 22 10 45 14 50
4 6 8 19 8 30 2 35 22 75 38 75 8 0 15 5 15 10 0 6 -7 10 -15 10 -19 0 -19 5
2 63 14 40 20 46 37 41 29 -9 31 -12 17 -28 -7 -8 -9 -21 -5 -28 20 -33 8
-118 -16 -103 -33 20 -83 -67 -78 -136 2 -37 7 -45 25 -47 15 -2 23 -10 23
-23 0 -10 5 -19 10 -19 6 0 10 -13 10 -30 0 -16 -5 -30 -11 -30 -8 0 -7 -5 1
-15 10 -13 10 -19 -4 -33 -9 -10 -16 -29 -16 -43 0 -14 3 -19 8 -13 4 6 18 11
32 10 19 -1 26 5 28 23 2 13 -2 34 -8 47 -10 18 -10 32 3 72 9 27 16 71 16 98
-1 27 2 63 5 79 8 37 10 47 31 215 9 74 21 139 26 144 5 6 9 24 9 40 0 32 33
167 49 201 5 11 17 56 26 100 9 44 23 94 31 110 7 17 17 50 20 75 7 42 6 44
-10 31 -9 -8 -14 -21 -11 -29 7 -19 -26 -74 -42 -68 -9 4 -11 -3 -7 -23 3 -16
0 -39 -7 -52 -7 -13 -12 -28 -11 -32 1 -4 -7 -27 -19 -50 -11 -23 -22 -66 -24
-96 -2 -30 -9 -59 -15 -65 -5 -5 -10 -27 -10 -48 0 -24 -5 -38 -12 -38 -9 0
-13 -20 -14 -65 -2 -82 -7 -95 -39 -95 -28 0 -33 20 -14 67 15 35 23 85 33
188 4 44 81 274 97 290 5 5 9 22 9 37 0 16 7 43 16 60 23 45 34 87 24 93 -5 3
-21 -21 -35 -52z m-147 -979 c2 -25 -1 -30 -22 -32 -30 -2 -39 25 -17 51 20
24 35 16 39 -19z"/>
<path d="M7787 5673 c-4 -3 -7 -27 -7 -53 0 -34 5 -52 20 -65 13 -12 20 -31
20 -56 0 -21 7 -45 16 -53 8 -9 17 -34 19 -57 3 -23 15 -60 29 -83 17 -29 24
-54 22 -84 -1 -24 4 -51 11 -60 7 -9 13 -33 13 -52 0 -20 7 -46 16 -58 9 -13
13 -30 10 -38 -7 -17 12 -162 24 -185 5 -9 11 -38 15 -65 4 -27 13 -71 20 -99
19 -71 27 -349 10 -335 -18 15 -37 -12 -33 -47 2 -20 8 -28 21 -26 17 1 18 -7
14 -110 -3 -62 -8 -137 -11 -167 -3 -30 -8 -106 -11 -168 -3 -62 -9 -121 -15
-132 -15 -29 -13 -53 5 -46 9 3 24 0 35 -6 10 -7 22 -10 25 -7 5 6 21 74 31
134 3 17 8 37 12 45 3 8 6 26 6 40 1 16 6 24 15 22 23 -5 31 19 31 96 0 52 -3
71 -12 70 -16 -4 -15 27 2 105 11 50 11 60 -1 68 -11 7 -11 11 -1 17 9 6 11
32 7 98 -10 170 -7 157 -44 176 -45 22 -49 31 -46 94 1 38 9 65 29 94 25 38
26 46 21 118 -3 42 -5 92 -5 111 1 37 -27 160 -40 176 -4 6 -10 33 -12 60 -5
50 -57 229 -85 295 -9 19 -31 50 -49 68 -18 18 -31 38 -29 45 3 6 1 35 -4 62
-8 48 -9 49 -10 12 -1 -26 -5 -37 -13 -34 -7 2 -12 13 -10 25 2 11 -2 23 -7
26 -6 4 -8 13 -4 21 4 11 -2 15 -19 15 -14 0 -28 -3 -31 -7z"/>
<path d="M3725 5619 c-287 -66 -484 -330 -462 -620 32 -406 452 -656 826 -492
l55 24 60 -25 c96 -40 144 -49 246 -48 433 3 707 458 513 852 -45 93 -161 212
-243 251 -180 87 -358 92 -527 15 l-51 -24 -49 23 c-105 50 -259 69 -368 44z
m308 -69 c31 -12 57 -24 57 -27 0 -3 -31 -38 -69 -78 -221 -233 -217 -586 10
-817 l66 -68 -55 -20 c-357 -134 -732 125 -732 505 0 236 153 438 390 517 77
26 250 20 333 -12z m548 14 c254 -76 417 -310 396 -568 -19 -215 -152 -386
-361 -462 -118 -43 -245 -40 -370 6 l-54 21 66 67 c226 227 231 585 11 817
-38 40 -69 75 -69 78 0 8 80 38 125 47 70 14 198 11 256 -6z m-358 -137 c34
-34 75 -87 91 -117 l29 -55 -111 109 c-61 60 -109 113 -106 118 12 19 38 4 97
-55z m155 -340 l-3 -47 -173 173 -173 173 22 28 22 28 154 -154 154 -154 -3
-47z m-9 -169 c-5 -21 -14 -38 -18 -38 -4 0 -94 90 -200 200 l-192 199 17 32
16 32 194 -194 194 -194 -11 -37z m-53 -134 l-17 -38 -194 195 -194 194 11 43
11 44 201 -201 200 -200 -18 -37z m-76 -109 l-25 -25 -152 153 c-151 152 -151
152 -158 207 l-7 55 184 -182 183 -183 -25 -25z m-82 -72 c-8 -10 -16 -9 -37
6 -58 41 -171 184 -171 215 0 6 49 -39 110 -99 83 -83 107 -112 98 -122z"/>
<path d="M8090 4660 c0 -5 5 -10 10 -10 6 0 10 5 10 10 0 6 -4 10 -10 10 -5 0
-10 -4 -10 -10z"/>
<path d="M336 4253 c9 -36 12 -39 20 -19 7 20 -1 46 -16 46 -6 0 -8 -11 -4
-27z"/>
<path d="M337 4134 c-14 -14 -8 -64 8 -64 16 0 18 23 6 53 -3 10 -10 15 -14
11z"/>
<path d="M340 3999 c0 -5 5 -7 10 -4 6 3 10 8 10 11 0 2 -4 4 -10 4 -5 0 -10
-5 -10 -11z"/>
<path d="M271 3964 c0 -11 3 -14 6 -6 3 7 2 16 -1 19 -3 4 -6 -2 -5 -13z"/>
<path d="M342 3889 c-10 -15 -11 -24 -3 -32 14 -14 14 -59 0 -90 -8 -19 -6
-30 11 -60 22 -37 39 -47 41 -24 9 77 -14 227 -34 227 -1 0 -8 -10 -15 -21z"/>
<path d="M1689 3879 c122 -70 205 -190 332 -478 143 -325 216 -451 316 -546
54 -52 142 -106 193 -119 14 -4 1 5 -29 20 -61 30 -144 109 -196 186 -19 29
-35 56 -35 60 0 16 272 624 287 640 8 9 29 19 47 21 17 2 -12 4 -64 4 -52 0
-84 -2 -70 -4 38 -7 52 -23 45 -52 -3 -14 -51 -127 -105 -251 -169 -385 -149
-346 -166 -322 -8 12 -62 125 -120 253 -57 127 -117 252 -131 278 -88 153
-182 256 -281 309 -77 41 -94 42 -23 1z"/>
<path d="M8111 3705 c-7 -53 -14 -104 -15 -113 -2 -9 -7 -37 -11 -62 -22 -145
-64 -307 -89 -338 -7 -10 -6 -16 5 -23 15 -9 29 -12 29 -4 0 2 7 30 15 61 34
129 98 574 84 574 -3 0 -10 -43 -18 -95z"/>
<path d="M3330 3671 c-86 -26 -130 -77 -130 -149 0 -90 46 -129 210 -180 171
-53 220 -89 227 -169 6 -62 -14 -113 -58 -145 -141 -105 -358 -28 -408 143 -7
27 -9 11 -9 -76 1 -60 3 -100 5 -87 7 37 29 37 106 1 60 -27 87 -34 159 -37
80 -4 93 -2 143 23 89 43 129 125 106 212 -23 85 -71 117 -262 177 -126 39
-164 62 -185 111 -43 103 89 198 230 166 68 -15 131 -68 157 -131 l18 -45 0
88 c1 83 0 87 -18 75 -15 -9 -34 -7 -92 10 -74 22 -152 27 -199 13z"/>
<path d="M5478 3670 c-104 -31 -151 -116 -114 -205 20 -46 72 -78 198 -119
170 -54 218 -95 218 -184 0 -82 -55 -143 -146 -162 -32 -7 -182 -10 -412 -8
-309 3 -364 5 -372 18 -5 8 -10 86 -10 173 l0 157 98 0 c98 0 123 -7 135 -40
3 -8 5 12 5 45 0 33 -2 53 -5 45 -12 -33 -36 -40 -135 -40 l-99 0 3 153 3 152
166 0 c190 0 195 -2 225 -84 29 -77 34 -68 10 15 l-23 79 -254 1 c-140 1 -240
-1 -224 -3 54 -8 55 -11 55 -338 0 -327 -1 -330 -55 -338 -16 -3 184 -4 445
-3 l475 1 56 26 c93 44 130 132 94 225 -24 64 -75 97 -214 140 -182 57 -221
86 -221 170 0 27 8 44 33 69 90 90 278 57 344 -60 l23 -40 -1 80 c-1 44 -3 73
-6 63 -7 -26 -24 -27 -98 -2 -71 23 -148 29 -197 14z"/>
<path d="M2835 3663 c55 -8 55 -11 55 -344 0 -331 1 -323 -55 -332 -16 -2 15
-4 70 -4 55 0 89 2 75 4 -51 10 -50 5 -50 338 0 333 -1 328 50 338 14 2 -20 4
-75 4 -55 0 -86 -2 -70 -4z"/>
<path d="M3899 3660 c18 -4 37 -14 42 -22 5 -7 9 -148 9 -314 0 -326 -1 -329
-55 -337 -16 -2 15 -4 70 -4 55 0 88 2 73 4 -46 7 -49 19 -46 189 l3 159 223
3 222 2 -2 -172 -3 -173 -35 -6 c-20 -4 8 -6 65 -6 57 0 85 2 65 6 l-35 6 -3
319 c-1 218 1 323 9 332 6 7 23 15 37 17 15 2 -18 4 -73 4 -55 0 -89 -2 -75
-4 48 -9 50 -17 50 -169 l0 -144 -225 0 -225 0 0 144 c0 152 2 160 50 169 14
2 -20 4 -75 5 -71 0 -90 -2 -66 -8z"/>
<path d="M6040 3663 c49 -9 50 -16 50 -344 0 -327 1 -322 -50 -332 -14 -2 20
-4 75 -4 55 0 86 2 68 4 -17 2 -36 10 -43 17 -7 9 -10 68 -8 172 l3 159 223 3
222 2 -2 -172 -3 -173 -35 -6 c-20 -4 8 -6 65 -6 57 0 85 2 65 6 l-35 6 -3
319 c-1 218 1 323 9 332 6 7 23 15 37 17 15 2 -18 4 -73 5 -100 0 -105 -1 -52
-12 l27 -6 0 -150 0 -150 -225 0 -225 0 0 138 c0 152 5 168 55 175 17 2 -15 4
-70 4 -55 0 -89 -2 -75 -4z"/>
<path d="M364 3621 c-7 -17 -8 -47 -4 -75 4 -26 3 -49 -2 -52 -15 -9 0 -124
31 -244 15 -61 31 -113 35 -117 3 -3 6 -20 6 -37 0 -20 8 -38 21 -50 16 -13
18 -20 9 -26 -23 -14 12 -110 41 -110 5 0 7 23 4 51 l-5 51 40 -40 c22 -22 40
-46 40 -55 0 -8 7 -20 15 -27 8 -7 15 -18 15 -26 0 -7 4 -15 9 -18 17 -11 1
85 -18 106 -11 11 -22 35 -26 54 -5 28 -10 34 -30 34 -16 0 -25 6 -25 15 0 8
-9 15 -20 15 -27 0 -27 53 0 83 12 13 18 27 14 37 -4 8 -10 40 -13 70 -5 46
-9 55 -26 55 -24 0 -33 33 -11 41 9 3 13 10 10 15 -3 5 -7 19 -9 31 -6 31 -38
98 -47 98 -4 0 -3 12 2 26 6 14 7 30 4 36 -6 10 -10 28 -13 71 -2 28 -35 20
-47 -12z m126 -652 c0 -5 -4 -9 -10 -9 -5 0 -10 7 -10 16 0 8 5 12 10 9 6 -3
10 -10 10 -16z"/>
<path d="M8019 3560 c-12 -13 -14 -21 -6 -29 7 -7 14 -3 24 16 7 14 13 27 13
29 0 9 -16 1 -31 -16z"/>
<path d="M7964 3393 c4 -29 2 -43 -7 -46 -6 -2 -12 -17 -13 -33 -2 -102 -3
-109 -32 -122 -17 -8 -28 -9 -30 -2 -2 5 -8 10 -14 10 -6 0 -6 -6 2 -15 16
-19 5 -49 -15 -41 -20 7 -19 -11 1 -22 14 -8 13 -15 -9 -63 -14 -30 -26 -46
-26 -36 -1 9 -6 17 -11 17 -6 0 -13 -8 -17 -17 -3 -10 -11 -25 -18 -33 -7 -8
-27 -49 -45 -90 -30 -69 -42 -96 -98 -220 -12 -25 -24 -57 -27 -72 -4 -15 -18
-34 -31 -43 -17 -11 -24 -25 -24 -46 0 -20 -10 -40 -29 -60 -40 -40 -101 -142
-101 -169 0 -12 -7 -24 -17 -26 -10 -3 -34 -32 -52 -65 -19 -32 -39 -59 -43
-59 -4 0 -8 -12 -8 -27 -1 -32 -28 -69 -55 -74 -11 -3 -26 -17 -35 -33 -8 -16
-22 -37 -31 -46 -9 -9 -30 -38 -48 -63 -18 -26 -36 -47 -41 -47 -5 0 -12 -10
-16 -22 -7 -23 -22 -41 -124 -145 -33 -34 -60 -66 -60 -72 0 -6 -9 -11 -20
-11 -13 0 -20 -7 -20 -19 0 -11 -8 -22 -17 -25 -10 -3 -45 -32 -79 -63 -33
-32 -79 -74 -102 -93 -23 -19 -42 -41 -42 -47 0 -7 -7 -13 -16 -13 -8 0 -20
-13 -25 -30 -6 -16 -17 -30 -25 -30 -7 0 -29 -14 -48 -31 -35 -30 -35 -31 -19
-56 17 -25 16 -26 -18 -54 -40 -33 -49 -36 -43 -12 2 10 0 24 -5 32 -7 11 -18
8 -57 -16 -42 -26 -49 -34 -46 -58 2 -18 -5 -36 -18 -51 -12 -12 -19 -27 -15
-33 8 -14 42 -14 50 -1 3 6 25 19 47 30 37 17 39 18 25 2 -22 -24 -181 -132
-195 -132 -6 0 -15 -6 -19 -14 -4 -7 -42 -32 -83 -56 -41 -23 -91 -52 -110
-63 -60 -34 -220 -112 -335 -161 -209 -91 -241 -103 -355 -139 -223 -69 -257
-78 -301 -82 -25 -3 -80 -14 -124 -25 -43 -11 -88 -20 -101 -20 -13 0 -26 -5
-29 -11 -4 -6 -13 -8 -19 -6 -7 3 -35 1 -62 -4 -27 -5 -74 -11 -104 -14 -181
-15 -212 -19 -228 -31 -27 -21 121 -18 256 6 62 11 123 19 135 19 53 -1 402
83 557 135 41 14 104 35 140 46 36 12 79 28 95 36 17 7 62 25 100 40 62 24
306 139 345 164 17 10 175 101 230 133 42 24 254 167 293 199 111 89 157 127
191 158 93 85 89 80 69 80 -11 0 -23 -3 -28 -8 -6 -4 13 16 42 45 29 29 55 53
58 53 4 0 29 21 56 48 27 26 53 47 58 47 21 0 71 47 71 66 0 12 11 30 25 41
14 11 25 28 25 39 0 21 20 27 20 7 0 -7 18 6 39 30 22 23 46 42 54 42 15 0 30
26 23 39 -5 8 100 142 120 154 8 4 14 19 14 33 0 16 12 37 30 54 17 15 30 32
30 37 0 8 22 38 63 86 9 11 17 25 17 30 0 6 18 28 41 50 28 28 39 46 35 60 -3
11 6 36 20 58 13 21 24 45 24 53 0 8 5 18 10 21 17 10 11 32 -10 38 -32 8 -23
24 10 19 17 -2 30 -10 30 -18 0 -20 14 -17 37 9 23 25 103 182 103 202 0 7 7
18 14 25 8 6 20 36 27 66 7 31 18 54 25 54 14 0 20 15 29 85 4 28 13 61 20 75
32 62 75 189 75 221 0 11 5 29 11 40 20 38 26 216 8 234 -9 7 -10 -1 -5 -32z
m-198 -541 c-15 -15 -16 -15 -16 1 0 9 6 26 13 38 12 20 12 20 15 -2 2 -12 -3
-29 -12 -37z m-28 -74 c13 -13 17 -48 6 -48 -10 0 -33 33 -34 48 0 15 12 16
28 0z m-35 -123 c5 -30 -11 -65 -30 -65 -12 0 -48 -39 -58 -65 -8 -18 -9 -17
-13 7 -2 18 4 35 18 50 11 12 24 34 27 48 9 35 34 73 43 63 4 -4 10 -21 13
-38z m-278 -495 c-28 -12 -47 -12 -40 0 3 6 18 10 33 9 24 0 25 -1 7 -9z
m-355 -429 c0 -9 -41 -23 -48 -16 -2 2 -1 8 3 14 8 13 45 15 45 2z m-529 -494
c-1 -4 -1 -13 -1 -21 0 -7 -9 -16 -21 -19 -20 -5 -20 -5 -3 14 11 12 13 19 5
19 -7 0 -9 5 -6 11 7 11 27 8 26 -4z m109 -11 c0 -2 -26 -23 -57 -47 -32 -24
-82 -63 -110 -88 -29 -24 -53 -39 -53 -33 0 12 40 46 139 118 72 53 81 58 81
50z"/>
<path d="M7876 3255 c-3 -10 -3 -22 3 -28 12 -12 20 4 11 27 -6 19 -7 19 -14
1z"/>
<path d="M530 3119 c0 -16 4 -28 9 -25 8 5 3 56 -5 56 -2 0 -4 -14 -4 -31z"/>
<path d="M8004 3134 c4 -12 2 -15 -9 -10 -12 4 -15 -2 -15 -29 0 -24 -5 -35
-15 -35 -20 0 -19 -19 3 -43 9 -11 11 -17 3 -12 -16 9 -33 -13 -25 -37 3 -9
-2 -21 -12 -26 -12 -7 -17 -24 -18 -58 -1 -27 -10 -65 -20 -84 -46 -84 -65
-124 -60 -131 2 -4 -3 -12 -11 -17 -9 -5 -18 -15 -19 -23 -2 -8 -10 -31 -20
-51 -9 -21 -16 -42 -16 -47 0 -5 -3 -11 -7 -13 -14 -6 -43 -69 -43 -93 0 -30
-39 -116 -84 -185 -20 -30 -36 -60 -36 -67 0 -7 -7 -13 -15 -13 -8 0 -15 -7
-15 -15 0 -8 -4 -15 -9 -15 -5 0 -21 -25 -36 -56 -14 -30 -33 -58 -41 -61 -7
-3 -14 -17 -14 -32 0 -17 -10 -35 -30 -51 -23 -19 -30 -33 -30 -61 0 -32 -3
-36 -19 -32 -16 4 -22 -3 -30 -34 -12 -45 -46 -83 -54 -61 -2 7 -8 10 -12 6
-4 -4 -2 -14 5 -23 11 -13 9 -15 -11 -13 -16 2 -24 -3 -27 -17 -2 -11 -12 -29
-22 -40 -9 -11 -22 -33 -27 -50 -9 -26 -14 -30 -41 -27 -18 2 -32 -1 -32 -7 0
-12 -51 -61 -63 -61 -8 0 -77 -69 -77 -76 0 -12 -55 -80 -83 -102 -42 -34 -58
-48 -105 -92 -20 -20 -49 -41 -64 -47 -20 -9 -25 -17 -21 -33 3 -11 9 -23 14
-26 20 -12 8 -26 -17 -20 -17 5 -34 0 -54 -14 -15 -11 -35 -20 -43 -20 -8 0
-29 -13 -46 -29 -17 -16 -38 -32 -47 -35 -9 -4 -14 -12 -10 -22 4 -10 -3 -18
-23 -25 -18 -6 -32 -20 -35 -35 -5 -17 -12 -23 -28 -21 -15 1 -24 -5 -29 -23
-4 -14 -8 -18 -8 -10 -1 13 -4 12 -14 -2 -7 -9 -25 -20 -40 -23 -16 -4 -27
-14 -27 -24 0 -10 -11 -24 -25 -31 -14 -7 -24 -19 -23 -26 2 -7 -1 -13 -7 -14
-5 -1 -18 -9 -28 -18 -17 -15 -17 -15 -11 4 7 18 7 18 -13 1 -11 -9 -34 -17
-51 -17 -18 0 -32 -4 -32 -8 0 -15 -40 -56 -47 -49 -3 4 -11 -1 -18 -9 -6 -9
-24 -17 -39 -17 -22 1 -30 -6 -38 -29 -9 -26 -14 -28 -39 -23 -21 5 -31 2 -35
-9 -3 -9 -15 -16 -25 -16 -10 0 -19 -7 -19 -15 0 -18 -45 -38 -69 -30 -9 3
-31 -9 -53 -29 -20 -19 -39 -31 -42 -28 -3 3 -6 0 -6 -7 0 -8 -7 -10 -20 -6
-14 5 -20 2 -20 -10 0 -15 -11 -15 -72 2 -10 2 -18 0 -18 -6 0 -6 -7 -8 -16
-4 -10 4 -17 -1 -21 -16 -3 -11 -12 -21 -20 -21 -8 0 -12 -4 -9 -9 3 -4 -10
-7 -30 -5 -31 2 -35 0 -32 -19 3 -25 18 -25 86 0 31 12 39 19 30 25 -9 6 -6 7
8 3 26 -7 80 12 215 74 37 17 69 31 72 31 3 0 33 16 66 34 34 19 61 32 61 29
0 -3 12 3 27 13 15 9 57 33 93 52 112 61 304 184 331 214 15 15 31 28 37 28 5
0 12 9 15 20 3 12 11 18 20 15 17 -7 163 88 177 116 8 13 7 19 0 19 -6 0 -8 5
-5 11 4 6 13 8 20 5 14 -5 77 37 109 73 11 11 24 21 29 21 14 0 187 175 187
189 0 6 6 11 14 11 18 0 149 145 248 275 4 6 19 24 33 41 14 18 25 35 25 38 0
4 18 31 40 60 22 29 40 57 40 63 0 5 9 18 20 28 11 10 20 22 20 27 0 5 18 32
41 60 26 34 39 58 35 71 -3 13 1 21 13 24 10 2 34 39 57 85 21 44 49 92 61
106 12 14 27 46 33 70 6 25 29 76 51 113 21 37 39 73 39 81 0 7 9 24 20 38 11
14 20 33 20 42 0 10 7 26 15 36 14 16 31 61 92 247 9 28 20 55 24 60 8 11 17
45 44 160 18 74 18 75 4 75 -6 0 -8 -7 -5 -16z m-1594 -2284 c0 -5 -4 -10 -10
-10 -5 0 -10 5 -10 10 0 6 5 10 10 10 6 0 10 -4 10 -10z"/>
<path d="M622 2773 c-6 -32 -13 -66 -17 -75 -5 -13 0 -20 18 -27 23 -9 44 -44
39 -65 -7 -25 12 -68 34 -76 14 -6 24 -18 24 -28 0 -10 9 -27 20 -37 17 -16
18 -19 4 -40 -10 -16 -12 -25 -4 -30 17 -10 47 4 53 26 7 24 -10 91 -27 104
-6 6 -24 34 -40 64 -25 50 -40 91 -66 190 -15 58 -27 57 -38 -6z"/>
<path d="M2568 2723 c6 -2 18 -2 25 0 6 3 1 5 -13 5 -14 0 -19 -2 -12 -5z"/>
<path d="M810 2390 c0 -5 5 -10 10 -10 6 0 10 5 10 10 0 6 -4 10 -10 10 -5 0
-10 -4 -10 -10z"/>
<path d="M789 2343 c-13 -15 -11 -18 34 -44 9 -5 17 -16 17 -24 0 -8 8 -18 18
-24 14 -8 15 -13 4 -31 -15 -25 -8 -40 19 -40 12 0 19 7 19 18 0 10 5 23 11
29 27 27 -24 107 -78 122 -24 7 -35 6 -44 -6z"/>
<path d="M1064 1965 c-8 -34 1 -55 26 -55 15 0 20 -7 20 -25 0 -14 -4 -25 -10
-25 -20 0 -8 -36 28 -87 53 -74 143 -183 151 -183 3 0 54 -46 112 -102 125
-122 293 -264 393 -333 40 -27 85 -60 102 -73 53 -42 98 -72 144 -94 25 -13
61 -35 80 -49 31 -24 47 -29 114 -41 10 -2 21 4 24 12 4 13 3 13 -11 1 -14
-11 -21 -9 -47 17 -16 17 -47 41 -67 53 -62 38 -84 79 -42 79 18 0 19 2 9 15
-13 15 -158 116 -283 195 -49 31 -83 63 -111 102 -49 68 -71 76 -62 21 7 -37
18 -51 73 -91 16 -12 23 -24 18 -31 -5 -9 -12 -7 -26 8 -11 12 -28 21 -38 21
-21 0 -141 114 -141 133 0 7 9 18 20 25 17 10 25 9 45 -4 14 -9 28 -14 32 -11
10 11 -16 35 -61 57 -52 25 -78 52 -74 76 2 11 -4 20 -14 22 -23 4 -25 -36 -3
-64 19 -26 19 -34 -3 -34 -20 0 -62 35 -62 50 0 6 -5 10 -12 10 -19 0 -118
107 -118 129 0 19 -24 51 -38 51 -24 1 -33 18 -21 43 14 31 34 34 61 10 17
-15 18 -15 18 0 0 10 -7 17 -15 17 -8 0 -15 5 -15 10 0 6 -10 10 -23 10 -27 0
-110 82 -114 114 -3 20 -28 46 -45 46 -4 0 -10 -11 -14 -25z m736 -755 c0 -5
-5 -10 -11 -10 -5 0 -7 5 -4 10 3 6 8 10 11 10 2 0 4 -4 4 -10z m98 -22 c16
-16 15 -38 -1 -38 -18 0 -49 34 -40 43 10 11 28 8 41 -5z m100 -70 c16 -16 15
-38 0 -38 -23 0 -41 18 -35 34 8 19 19 20 35 4z"/>
<path d="M1357 1706 c-10 -26 4 -53 38 -69 27 -13 36 -13 44 -3 7 9 3 22 -16
49 -27 38 -57 48 -66 23z"/>
<path d="M1178 1462 c-16 -7 -28 -17 -28 -22 0 -24 241 -272 346 -355 27 -21
54 -44 59 -49 15 -16 83 -66 89 -66 3 0 22 -16 43 -36 21 -20 56 -48 78 -63
22 -14 42 -29 45 -32 3 -4 41 -29 85 -58 44 -28 85 -55 92 -61 7 -5 34 -22 60
-36 26 -15 59 -35 73 -44 14 -10 63 -36 110 -59 47 -24 92 -46 100 -51 79 -47
298 -136 308 -125 3 3 -9 18 -28 33 -35 28 -39 29 -77 31 -13 1 -23 7 -23 16
0 8 -6 15 -14 15 -8 0 -17 7 -20 16 -4 10 -13 13 -24 10 -11 -4 -29 2 -45 14
-14 11 -30 20 -35 20 -5 0 -13 7 -16 16 -3 8 -10 13 -15 9 -16 -10 -61 6 -61
22 0 10 -7 13 -22 9 -13 -3 -17 -3 -10 0 22 10 13 25 -12 18 -15 -3 -29 1 -41
13 -14 13 -20 14 -23 5 -7 -21 -32 6 -32 35 0 21 -4 24 -27 23 -46 -3 -53 -1
-53 19 0 10 -7 24 -15 31 -13 11 -18 10 -31 -6 -15 -18 -15 -18 -9 2 7 25 -28
63 -41 43 -5 -9 -11 -7 -20 6 -11 15 -16 16 -29 5 -12 -10 -16 -9 -21 4 -3 9
-12 16 -20 16 -8 0 -14 4 -14 9 0 5 -10 11 -22 13 -17 2 -23 10 -23 28 0 21
-5 26 -32 28 -22 2 -39 13 -58 38 -14 19 -33 34 -41 34 -7 0 -14 4 -14 9 0 6
-13 18 -29 27 -24 14 -27 20 -19 34 6 10 8 25 5 34 -7 17 -37 23 -37 6 0 -6
-10 -5 -25 2 -13 6 -22 15 -19 19 10 17 -7 31 -22 18 -15 -12 -19 1 -16 44 1
9 -3 17 -8 17 -6 0 -10 -8 -10 -17 0 -13 -4 -12 -13 7 -7 13 -23 27 -37 30
-14 3 -25 10 -26 15 -1 17 -27 65 -35 65 -4 0 -9 -6 -12 -12 -2 -7 -3 -5 -1 5
1 10 -6 25 -15 35 -10 9 -30 34 -45 55 -16 20 -33 37 -38 37 -11 0 -27 15 -48
45 -14 19 -18 20 -42 7z"/>
<path d="M6886 1422 c-10 -15 -34 -38 -53 -51 -19 -12 -32 -25 -29 -28 3 -4
14 1 24 10 10 10 28 17 40 17 23 0 52 34 52 62 0 26 -12 22 -34 -10z"/>
<path d="M6775 1320 c-3 -5 -1 -10 4 -10 6 0 11 5 11 10 0 6 -2 10 -4 10 -3 0
-8 -4 -11 -10z"/>
<path d="M2152 1018 c2 -12 11 -22 21 -24 10 -1 24 -9 30 -17 7 -7 31 -20 55
-27 23 -7 47 -19 53 -27 6 -7 17 -13 23 -13 6 0 18 -20 25 -45 13 -46 50 -92
39 -49 -3 11 1 29 9 40 12 16 15 17 23 4 6 -8 9 -29 8 -45 -2 -36 7 -55 28
-55 8 0 14 -4 14 -10 0 -5 18 -15 40 -21 31 -9 43 -9 55 1 10 8 15 9 15 1 0
-6 9 -11 20 -11 13 0 18 -5 14 -15 -5 -12 2 -15 30 -15 20 0 36 -4 36 -8 0
-11 61 -32 92 -32 14 0 33 -9 43 -20 24 -26 33 -25 61 6 28 29 47 24 38 -12
-5 -20 -2 -26 15 -31 11 -3 21 -10 21 -15 0 -5 5 -6 10 -3 6 3 10 20 10 37 0
20 4 29 13 26 10 -4 52 -17 145 -44 6 -2 12 -15 12 -29 0 -27 24 -35 33 -11 6
15 59 13 102 -3 11 -5 33 -12 50 -17 22 -7 31 -17 35 -38 7 -40 26 -43 33 -6
7 32 27 42 27 12 0 -10 6 -27 14 -38 14 -18 15 -18 25 8 12 32 39 42 92 33 30
-5 43 -14 54 -36 18 -34 45 -39 45 -8 0 15 5 20 23 17 16 -2 22 -10 22 -30 1
-15 4 -30 7 -34 11 -11 47 7 53 27 5 14 15 19 40 19 18 0 35 -6 38 -12 3 -9 9
-7 19 6 12 15 18 16 36 7 27 -14 32 -14 32 3 0 16 -73 35 -155 42 -83 6 -261
39 -410 75 -22 5 -65 13 -95 17 -30 4 -70 16 -89 25 -19 9 -45 17 -58 17 -13
0 -36 6 -51 14 -15 7 -43 17 -62 20 -19 4 -48 13 -65 21 -59 27 -138 55 -154
55 -9 0 -25 7 -35 15 -11 8 -27 15 -36 15 -8 0 -42 13 -75 30 -33 16 -65 30
-71 30 -6 0 -17 7 -24 15 -7 8 -20 15 -29 15 -9 0 -27 7 -41 14 -59 34 -156
76 -174 76 -7 0 -23 11 -36 25 -13 14 -34 25 -46 25 -13 0 -25 4 -28 9 -3 5
-15 11 -26 14 -17 4 -21 1 -18 -15z m376 -220 c20 -20 14 -40 -10 -36 -15 2
-24 11 -26 26 -4 24 16 30 36 10z m256 -122 c-6 -15 -34 -23 -34 -10 0 8 34
34 38 30 1 -2 0 -11 -4 -20z"/>
<path d="M6212 978 c-20 -20 -14 -30 16 -26 16 2 27 9 27 18 0 19 -27 24 -43
8z"/>
<path d="M1920 941 c0 -9 65 -51 78 -51 8 0 -34 35 -60 51 -11 6 -18 6 -18 0z"/>
<path d="M6113 894 c-3 -8 -1 -20 4 -25 14 -14 43 0 43 22 0 24 -38 26 -47 3z"/>
<path d="M2265 860 c3 -5 10 -10 16 -10 5 0 9 5 9 10 0 6 -7 10 -16 10 -8 0
-12 -4 -9 -10z"/>
<path d="M5940 829 c0 -5 5 -7 10 -4 6 3 10 8 10 11 0 2 -4 4 -10 4 -5 0 -10
-5 -10 -11z"/>
<path d="M2157 789 c7 -7 15 -10 18 -7 3 3 -2 9 -12 12 -14 6 -15 5 -6 -5z"/>
<path d="M5840 771 c0 -16 6 -21 26 -21 33 0 30 33 -4 38 -17 3 -22 -2 -22
-17z"/>
<path d="M5620 730 c-11 -6 -12 -12 -4 -20 13 -13 64 3 64 20 0 13 -40 13 -60
0z"/>
<path d="M2325 700 c3 -5 11 -10 16 -10 6 0 7 5 4 10 -3 6 -11 10 -16 10 -6 0
-7 -4 -4 -10z"/>
<path d="M5517 693 c-13 -12 -7 -23 13 -23 11 0 20 7 20 15 0 15 -21 21 -33 8z"/>
<path d="M5438 653 c-10 -2 -18 -9 -18 -14 0 -12 10 -11 40 6 24 14 14 18 -22
8z"/>
<path d="M2530 596 c0 -2 7 -7 16 -10 8 -3 12 -2 9 4 -6 10 -25 14 -25 6z"/>
<path d="M5336 592 c-3 -6 -1 -14 5 -17 15 -10 25 3 12 16 -7 7 -13 7 -17 1z"/>
<path d="M4945 540 c-3 -5 1 -10 9 -10 9 0 16 5 16 10 0 6 -4 10 -9 10 -6 0
-13 -4 -16 -10z"/>
<path d="M2740 510 c8 -5 22 -9 30 -9 10 0 8 3 -5 9 -27 12 -43 12 -25 0z"/>
<path d="M4680 496 c0 -2 6 -9 14 -15 10 -9 15 -8 20 4 4 10 -1 15 -14 15 -11
0 -20 -2 -20 -4z"/>
<path d="M2810 480 c0 -5 7 -10 15 -10 8 0 15 5 15 10 0 6 -7 10 -15 10 -8 0
-15 -4 -15 -10z"/>
<path d="M4010 470 c0 -5 6 -10 14 -10 8 0 18 5 21 10 3 6 -3 10 -14 10 -12 0
-21 -4 -21 -10z"/>
<path d="M4090 471 c0 -5 8 -12 17 -15 27 -11 -17 -35 -71 -40 -73 -7 -85 -23
-36 -44 20 -9 35 -10 47 -4 11 7 25 6 41 -1 20 -9 27 -8 38 8 8 11 14 13 14 6
0 -15 61 -5 72 13 15 22 7 29 -27 23 -37 -6 -47 7 -23 31 12 12 8 15 -44 26
-16 4 -28 2 -28 -3z"/>
<path d="M4615 469 c-4 -6 -4 -13 -1 -16 8 -8 36 5 36 17 0 13 -27 13 -35 -1z"/>
<path d="M4283 409 c-27 -10 -30 -27 -7 -36 19 -7 37 9 32 30 -2 11 -9 12 -25
6z"/>
<path d="M2657 404 c-8 -8 1 -24 14 -24 5 0 9 7 9 15 0 15 -12 20 -23 9z"/>
<path d="M2700 380 c0 -5 4 -10 9 -10 6 0 13 5 16 10 3 6 -1 10 -9 10 -9 0
-16 -4 -16 -10z"/>
<path d="M2816 344 c-4 -11 5 -20 32 -31 55 -23 112 -29 112 -11 0 7 -8 15
-17 16 -61 6 -95 16 -100 28 -7 19 -19 18 -27 -2z"/>
<path d="M5290 331 c0 -27 -27 -34 -33 -9 l-6 20 -22 -21 c-16 -15 -26 -18
-35 -10 -9 8 -16 5 -24 -11 -6 -11 -15 -18 -21 -15 -12 8 -79 -16 -79 -29 0
-6 -5 -5 -12 2 -17 17 -45 15 -52 -3 -3 -8 -9 -14 -13 -13 -13 5 -55 -30 -45
-36 22 -13 305 53 322 74 3 4 24 10 47 14 52 8 114 36 107 48 -3 5 -11 5 -17
0 -14 -11 -88 -21 -81 -11 2 4 -3 10 -12 13 -23 9 -24 8 -24 -13z"/>
<path d="M2980 288 c0 -9 10 -18 23 -22 32 -8 47 -7 47 4 0 6 -10 10 -23 10
-13 0 -28 5 -35 12 -9 9 -12 8 -12 -4z"/>
<path d="M3076 261 c-6 -9 132 -46 140 -38 5 5 -103 47 -121 47 -8 0 -16 -4
-19 -9z"/>
<path d="M3955 260 c3 -5 19 -8 36 -6 47 5 47 16 0 16 -25 0 -40 -4 -36 -10z"/>
<path d="M4124 254 c-18 -15 -18 -15 4 -9 13 4 43 7 68 7 24 0 44 4 44 9 0 15
-95 10 -116 -7z"/>
<path d="M4263 263 c9 -2 25 -2 35 0 9 3 1 5 -18 5 -19 0 -27 -2 -17 -5z"/>
<path d="M4058 253 c6 -2 18 -2 25 0 6 3 1 5 -13 5 -14 0 -19 -2 -12 -5z"/>
<path d="M4890 245 c-6 -8 -9 -18 -6 -23 3 -6 -1 -15 -9 -22 -9 -7 -15 -8 -15
-2 0 5 -8 8 -18 5 -10 -2 -24 3 -31 11 -15 17 -47 21 -55 7 -3 -5 2 -12 12
-16 15 -6 14 -8 -5 -16 -13 -4 -23 -13 -23 -20 0 -13 88 -6 145 13 39 13 44
22 36 71 -2 12 -18 8 -31 -8z"/>
<path d="M4835 239 c-10 -15 1 -23 20 -15 9 3 13 10 10 16 -8 13 -22 13 -30
-1z"/>
<path d="M3250 210 c0 -5 5 -10 10 -10 6 0 10 5 10 10 0 6 -4 10 -10 10 -5 0
-10 -4 -10 -10z"/>
<path d="M3302 198 c18 -11 68 -10 68 2 0 5 -18 9 -40 8 -26 -1 -36 -4 -28
-10z"/>
<path d="M3390 197 c0 -19 16 -31 24 -18 3 5 -1 14 -9 21 -12 10 -15 10 -15
-3z"/>
<path d="M4481 203 c-1 -6 -10 -9 -21 -6 -12 3 -20 0 -20 -7 0 -9 -10 -11 -31
-6 -30 6 -31 5 -27 -23 l4 -28 -70 1 c-69 1 -104 15 -91 35 3 5 1 12 -5 16 -5
3 -10 1 -10 -4 0 -6 -11 -11 -24 -11 -19 0 -23 -4 -19 -20 3 -11 1 -20 -5 -20
-6 0 -19 -3 -29 -7 -15 -6 -16 -4 -5 9 10 12 9 18 -3 28 -13 10 -15 9 -15 -9
0 -21 -1 -21 -25 -5 -14 9 -25 12 -25 6 0 -5 -9 -12 -19 -15 -15 -3 -21 1 -23
17 -3 19 -5 18 -21 -10 l-16 -32 77 -7 c42 -3 88 -2 102 3 35 12 102 14 131 4
27 -10 198 3 209 15 4 4 1 26 -6 48 -7 22 -13 35 -13 28z"/>
<path d="M3542 165 c-7 -8 -9 -15 -5 -15 4 0 37 -5 73 -10 123 -17 178 -21
150 -9 -14 6 -59 13 -100 15 -51 4 -77 10 -83 20 -10 18 -18 17 -35 -1z"/>
<path d="M4322 164 c-11 -12 -9 -14 8 -14 11 0 20 4 20 9 0 17 -15 19 -28 5z"/>
<path d="M4640 154 l-25 -15 29 3 c16 2 31 9 34 16 5 15 -6 14 -38 -4z"/>
<path d="M3897 153 c-4 -3 -7 -15 -7 -25 0 -14 8 -18 40 -18 22 0 40 5 40 10
0 6 -11 10 -25 10 -16 0 -25 6 -25 15 0 16 -12 20 -23 8z"/>
<path d="M4552 148 c2 -6 10 -14 16 -16 7 -2 10 2 6 12 -7 18 -28 22 -22 4z"/>
</g>
</svg>
